<svg width="22" height="22" viewBox="0 0 22 22" fill="none" xmlns="http://www.w3.org/2000/svg">
<path fill-rule="evenodd" clip-rule="evenodd" d="M19.2497 10.0834H18.2688C17.848 6.76487 15.2348 4.1517 11.9163 3.73087V2.75004C11.9163 2.24378 11.5059 1.83337 10.9997 1.83337C10.4934 1.83337 10.083 2.24378 10.083 2.75004V3.73087C6.7645 4.1517 4.15134 6.76487 3.73051 10.0834H2.74967C2.24341 10.0834 1.83301 10.4938 1.83301 11C1.83301 11.5063 2.24341 11.9167 2.74967 11.9167H3.73051C4.15134 15.2352 6.7645 17.8484 10.083 18.2692V19.25C10.083 19.7563 10.4934 20.1667 10.9997 20.1667C11.5059 20.1667 11.9163 19.7563 11.9163 19.25V18.2692C15.2348 17.8484 17.848 15.2352 18.2688 11.9167H19.2497C19.7559 11.9167 20.1663 11.5063 20.1663 11C20.1663 10.4938 19.7559 10.0834 19.2497 10.0834ZM8.24967 11C8.24967 9.48126 9.48089 8.25004 10.9997 8.25004C12.5185 8.25004 13.7497 9.48126 13.7497 11C13.7497 12.5188 12.5185 13.75 10.9997 13.75C9.48089 13.75 8.24967 12.5188 8.24967 11ZM10.083 11C10.083 11.5063 10.4934 11.9167 10.9997 11.9167C11.5059 11.9167 11.9163 11.5063 11.9163 11C11.9163 10.4938 11.5059 10.0834 10.9997 10.0834C10.4934 10.0834 10.083 10.4938 10.083 11ZM10.9997 15.5009C11.5059 15.5009 11.9163 15.9113 11.9163 16.4175C14.2205 16.026 16.0256 14.2209 16.4172 11.9167C15.9109 11.9167 15.5005 11.5063 15.5005 11C15.5005 10.4938 15.9109 10.0834 16.4172 10.0834C16.0256 7.77917 14.2205 5.9741 11.9163 5.58254C11.9163 6.0888 11.5059 6.49921 10.9997 6.49921C10.4934 6.49921 10.083 6.0888 10.083 5.58254C7.77881 5.9741 5.97374 7.77917 5.58217 10.0834C6.08844 10.0834 6.49884 10.4938 6.49884 11C6.49884 11.5063 6.08844 11.9167 5.58217 11.9167C5.97374 14.2209 7.77881 16.026 10.083 16.4175C10.083 15.9113 10.4934 15.5009 10.9997 15.5009Z" fill="black"/>
</svg>
