<svg width="30" height="30" viewBox="0 0 30 30" fill="none" xmlns="http://www.w3.org/2000/svg">
<path d="M14.0835 19.5834H10.4168C9.14877 19.5834 8.06787 19.1365 7.17412 18.2427C6.28037 17.349 5.8335 16.2681 5.8335 15C5.8335 13.732 6.28037 12.6511 7.17412 11.7573C8.06787 10.8636 9.14877 10.4167 10.4168 10.4167H14.0835V12.25H10.4168C9.65294 12.25 9.00363 12.5174 8.46891 13.0521C7.93419 13.5868 7.66683 14.2361 7.66683 15C7.66683 15.7639 7.93419 16.4132 8.46891 16.9479C9.00363 17.4827 9.65294 17.75 10.4168 17.75H14.0835V19.5834ZM11.3335 15.9167V14.0834H18.6668V15.9167H11.3335ZM15.9168 19.5834V17.75H19.5835C20.3474 17.75 20.9967 17.4827 21.5314 16.9479C22.0661 16.4132 22.3335 15.7639 22.3335 15C22.3335 14.2361 22.0661 13.5868 21.5314 13.0521C20.9967 12.5174 20.3474 12.25 19.5835 12.25H15.9168V10.4167H19.5835C20.8516 10.4167 21.9325 10.8636 22.8262 11.7573C23.72 12.6511 24.1668 13.732 24.1668 15C24.1668 16.2681 23.72 17.349 22.8262 18.2427C21.9325 19.1365 20.8516 19.5834 19.5835 19.5834H15.9168Z" fill="#2A2A2A"/>
</svg>
