<svg width="24" height="24" viewBox="0 0 24 24" fill="none" xmlns="http://www.w3.org/2000/svg">
<path fill-rule="evenodd" clip-rule="evenodd" d="M7.00013 2.06H17.0001C18.6918 2.09825 20.0336 3.49818 20.0001 5.19V19.87C20.0043 20.6858 19.5312 21.4288 18.7901 21.77C18.5376 21.8798 18.2655 21.9376 17.9901 21.94C17.5037 21.937 17.0362 21.7514 16.6801 21.42L12.0001 17.16L7.32013 21.42C6.74349 21.9345 5.92201 22.0708 5.21013 21.77C4.46908 21.4288 3.99594 20.6858 4.00013 19.87V5.19C3.96662 3.49818 5.30841 2.09825 7.00013 2.06ZM13.3301 15.68L18.0001 19.94V5.19C18.0288 4.60432 17.585 4.10273 17.0001 4.06H7.00013C6.4153 4.10273 5.97142 4.60432 6.00013 5.19V19.87L10.6301 15.68C11.3943 14.9808 12.5659 14.9808 13.3301 15.68Z" fill="#231F20"/>
</svg>
