
<svg width="23" height="22" viewBox="0 0 23 22" fill="none" xmlns="http://www.w3.org/2000/svg">
<path d="M8.17489 20.1667H15.5082C19.1932 20.1667 19.8532 18.6908 20.0457 16.8942L20.7332 9.56083C20.9807 7.32417 20.3391 5.5 16.4249 5.5H7.25822C3.34406 5.5 2.70239 7.32417 2.94989 9.56083L3.63739 16.8942C3.82989 18.6908 4.48989 20.1667 8.17489 20.1667Z" stroke="#0A5DBC" stroke-width="1.5" stroke-miterlimit="10" stroke-linecap="round" stroke-linejoin="round"/>
<path d="M8.17529 5.49999V4.76666C8.17529 3.14416 8.17529 1.83333 11.1086 1.83333H12.5753C15.5086 1.83333 15.5086 3.14416 15.5086 4.76666V5.49999" stroke="#0A5DBC" stroke-width="1.5" stroke-miterlimit="10" stroke-linecap="round" stroke-linejoin="round"/>
<path d="M13.675 11.9167V12.8333C13.675 12.8425 13.675 12.8425 13.675 12.8517C13.675 13.8508 13.6658 14.6667 11.8416 14.6667C10.0266 14.6667 10.0083 13.86 10.0083 12.8608V11.9167C10.0083 11 10.0083 11 10.925 11H12.7583C13.675 11 13.675 11 13.675 11.9167Z" stroke="#0A5DBC" stroke-width="1.5" stroke-miterlimit="10" stroke-linecap="round" stroke-linejoin="round"/>
<path d="M20.6878 10.0833C18.5703 11.6233 16.1503 12.54 13.6753 12.8517" stroke="#0A5DBC" stroke-width="1.5" stroke-miterlimit="10" stroke-linecap="round" stroke-linejoin="round"/>
<path d="M3.24365 10.3308C5.30615 11.7425 7.63449 12.595 10.0087 12.8608" stroke="#0A5DBC" stroke-width="1.5" stroke-miterlimit="10" stroke-linecap="round" stroke-linejoin="round"/>
</svg>
