<svg width="23" height="22" viewBox="0 0 23 22" fill="none" xmlns="http://www.w3.org/2000/svg">
<path fill-rule="evenodd" clip-rule="evenodd" d="M18.2581 4.58333H17.3415V2.74999C17.3415 2.24373 16.9311 1.83333 16.4248 1.83333C15.9185 1.83333 15.5081 2.24373 15.5081 2.74999V4.58333H8.1748V2.74999C8.1748 2.24373 7.7644 1.83333 7.25814 1.83333C6.75188 1.83333 6.34147 2.24373 6.34147 2.74999V4.58333H5.4248C3.90602 4.58333 2.6748 5.81454 2.6748 7.33333V17.4167C2.6748 18.9354 3.90602 20.1667 5.4248 20.1667H18.2581C19.7769 20.1667 21.0081 18.9354 21.0081 17.4167V7.33333C21.0081 5.81454 19.7769 4.58333 18.2581 4.58333ZM4.50814 7.33333C4.50814 6.82707 4.91854 6.41666 5.4248 6.41666H18.2581C18.7644 6.41666 19.1748 6.82707 19.1748 7.33333V8.24999H4.50814V7.33333ZM18.2581 18.3333C18.7644 18.3333 19.1748 17.9229 19.1748 17.4167V10.0833H4.50814V17.4167C4.50814 17.9229 4.91854 18.3333 5.4248 18.3333H18.2581Z" fill="#787878"/>
</svg>
