<svg width="22" height="22" viewBox="0 0 22 22" fill="none" xmlns="http://www.w3.org/2000/svg">
<path fill-rule="evenodd" clip-rule="evenodd" d="M4.5835 1.83334H17.4168C18.9356 1.83334 20.1668 3.06456 20.1668 4.58334V13.75C20.1668 15.2688 18.9356 16.5 17.4168 16.5H16.5002V19.25C16.4983 19.6201 16.2741 19.9527 15.9318 20.0933C15.823 20.1447 15.7037 20.1698 15.5835 20.1667C15.3398 20.1681 15.1057 20.0724 14.9327 19.9008L11.541 16.5H4.5835C3.06471 16.5 1.8335 15.2688 1.8335 13.75V4.58334C1.8335 3.06456 3.06471 1.83334 4.5835 1.83334ZM17.4168 14.6667C17.9231 14.6667 18.3335 14.2563 18.3335 13.75V4.58334C18.3335 4.07708 17.9231 3.66668 17.4168 3.66668H4.5835C4.07724 3.66668 3.66683 4.07708 3.66683 4.58334V13.75C3.66683 14.2563 4.07724 14.6667 4.5835 14.6667H11.9168C12.1605 14.6653 12.3947 14.7609 12.5677 14.9325L14.6668 17.0408V15.5833C14.6668 15.0771 15.0772 14.6667 15.5835 14.6667H17.4168Z" fill="#231F20"/>
</svg>
