<svg width="19" height="20" viewBox="0 0 19 20" fill="none" xmlns="http://www.w3.org/2000/svg">
<g clip-path="url(#clip0_576_13613)">
<path d="M9.5 18.3125C7.29539 18.3125 5.18107 17.4367 3.62217 15.8778C2.06328 14.3189 1.1875 12.2046 1.1875 10C1.1875 7.79539 2.06328 5.68107 3.62217 4.12217C5.18107 2.56328 7.29539 1.6875 9.5 1.6875C11.7046 1.6875 13.8189 2.56328 15.3778 4.12217C16.9367 5.68107 17.8125 7.79539 17.8125 10C17.8125 12.2046 16.9367 14.3189 15.3778 15.8778C13.8189 17.4367 11.7046 18.3125 9.5 18.3125ZM9.5 19.5C12.0196 19.5 14.4359 18.4991 16.2175 16.7175C17.9991 14.9359 19 12.5196 19 10C19 7.48044 17.9991 5.06408 16.2175 3.28249C14.4359 1.50089 12.0196 0.5 9.5 0.5C6.98044 0.5 4.56408 1.50089 2.78249 3.28249C1.00089 5.06408 0 7.48044 0 10C0 12.5196 1.00089 14.9359 2.78249 16.7175C4.56408 18.4991 6.98044 19.5 9.5 19.5Z" fill="black"/>
</g>
<defs>
<clipPath id="clip0_576_13613">
<rect width="19" height="19" fill="white" transform="translate(0 0.5)"/>
</clipPath>
</defs>
</svg>
