<svg width="16" height="16" viewBox="0 0 16 16" fill="none" xmlns="http://www.w3.org/2000/svg">
<path d="M10.6666 8.59999V11.4C10.6666 13.7333 9.73325 14.6667 7.39992 14.6667H4.59992C2.26659 14.6667 1.33325 13.7333 1.33325 11.4V8.59999C1.33325 6.26666 2.26659 5.33333 4.59992 5.33333H7.39992C9.73325 5.33333 10.6666 6.26666 10.6666 8.59999Z" stroke="#292D32" stroke-width="1.5" stroke-linecap="round" stroke-linejoin="round"/>
<path d="M14.6666 4.6V7.4C14.6666 9.73333 13.7333 10.6667 11.3999 10.6667H10.6666V8.59999C10.6666 6.26666 9.73325 5.33333 7.39992 5.33333H5.33325V4.6C5.33325 2.26666 6.26659 1.33333 8.59992 1.33333H11.3999C13.7333 1.33333 14.6666 2.26666 14.6666 4.6Z" stroke="#292D32" stroke-width="1.5" stroke-linecap="round" stroke-linejoin="round"/>
</svg>
