<svg width="23" height="22" viewBox="0 0 23 22" fill="none" xmlns="http://www.w3.org/2000/svg">
<path d="M9.09245 20.1666H14.5924C19.1758 20.1666 21.0091 18.3333 21.0091 13.75V8.24998C21.0091 3.66665 19.1758 1.83331 14.5924 1.83331H9.09245C4.50911 1.83331 2.67578 3.66665 2.67578 8.24998V13.75C2.67578 18.3333 4.50911 20.1666 9.09245 20.1666Z" stroke="#0A5DBC" stroke-width="1.5" stroke-linecap="round" stroke-linejoin="round"/>
<path d="M15.0501 16.9584C16.0585 16.9584 16.8835 16.1334 16.8835 15.125V6.87502C16.8835 5.86669 16.0585 5.04169 15.0501 5.04169C14.0418 5.04169 13.2168 5.86669 13.2168 6.87502V15.125C13.2168 16.1334 14.0326 16.9584 15.0501 16.9584Z" stroke="#0A5DBC" stroke-width="1.5" stroke-linecap="round" stroke-linejoin="round"/>
<path d="M8.63411 16.9583C9.64245 16.9583 10.4674 16.1333 10.4674 15.125V11.9166C10.4674 10.9083 9.64245 10.0833 8.63411 10.0833C7.62578 10.0833 6.80078 10.9083 6.80078 11.9166V15.125C6.80078 16.1333 7.61661 16.9583 8.63411 16.9583Z" stroke="#0A5DBC" stroke-width="1.5" stroke-linecap="round" stroke-linejoin="round"/>
</svg>
