<svg width="26" height="26" viewBox="0 0 26 26" fill="none" xmlns="http://www.w3.org/2000/svg">
<rect width="26" height="26" rx="10" fill="white"/>
<path d="M9.66602 19C9.29935 19 8.98546 18.8694 8.72435 18.6083C8.46324 18.3472 8.33268 18.0333 8.33268 17.6667V9H7.66602V7.66667H10.9993V7H14.9993V7.66667H18.3327V9H17.666V17.6667C17.666 18.0333 17.5355 18.3472 17.2743 18.6083C17.0132 18.8694 16.6993 19 16.3327 19H9.66602ZM16.3327 9H9.66602V17.6667H16.3327V9ZM10.9993 16.3333H12.3327V10.3333H10.9993V16.3333ZM13.666 16.3333H14.9993V10.3333H13.666V16.3333Z" fill="#DE0000"/>
</svg>
