
<svg width="23" height="22" viewBox="0 0 23 22" fill="none" xmlns="http://www.w3.org/2000/svg">
<path fill-rule="evenodd" clip-rule="evenodd" d="M5.4248 1.83333H8.1748C9.69359 1.83333 10.9248 3.06455 10.9248 4.58333V7.33333C10.9248 8.85211 9.69359 10.0833 8.1748 10.0833H5.4248C3.90602 10.0833 2.6748 8.85211 2.6748 7.33333V4.58333C2.6748 3.06455 3.90602 1.83333 5.4248 1.83333ZM8.1748 8.24999C8.68107 8.24999 9.09147 7.83959 9.09147 7.33333V4.58333C9.09147 4.07707 8.68107 3.66666 8.1748 3.66666H5.4248C4.91854 3.66666 4.50814 4.07707 4.50814 4.58333V7.33333C4.50814 7.83959 4.91854 8.24999 5.4248 8.24999H8.1748ZM8.1748 11.9167H5.4248C3.90602 11.9167 2.6748 13.1479 2.6748 14.6667V17.4167C2.6748 18.9354 3.90602 20.1667 5.4248 20.1667H8.1748C9.69359 20.1667 10.9248 18.9354 10.9248 17.4167V14.6667C10.9248 13.1479 9.69359 11.9167 8.1748 11.9167ZM8.1748 18.3333C8.68107 18.3333 9.09147 17.9229 9.09147 17.4167V14.6667C9.09147 14.1604 8.68107 13.75 8.1748 13.75H5.4248C4.91854 13.75 4.50814 14.1604 4.50814 14.6667V17.4167C4.50814 17.9229 4.91854 18.3333 5.4248 18.3333H8.1748ZM18.2581 11.9167H15.5081C13.9894 11.9167 12.7581 13.1479 12.7581 14.6667V17.4167C12.7581 18.9354 13.9894 20.1667 15.5081 20.1667H18.2581C19.7769 20.1667 21.0081 18.9354 21.0081 17.4167V14.6667C21.0081 13.1479 19.7769 11.9167 18.2581 11.9167ZM18.2581 18.3333C18.7644 18.3333 19.1748 17.9229 19.1748 17.4167V14.6667C19.1748 14.1604 18.7644 13.75 18.2581 13.75H15.5081C15.0019 13.75 14.5915 14.1604 14.5915 14.6667V17.4167C14.5915 17.9229 15.0019 18.3333 15.5081 18.3333H18.2581ZM18.2581 1.83333H15.5081C13.9894 1.83333 12.7581 3.06455 12.7581 4.58333V7.33333C12.7581 8.85211 13.9894 10.0833 15.5081 10.0833H18.2581C19.7769 10.0833 21.0081 8.85211 21.0081 7.33333V4.58333C21.0081 3.06455 19.7769 1.83333 18.2581 1.83333ZM18.2581 8.24999C18.7644 8.24999 19.1748 7.83959 19.1748 7.33333V4.58333C19.1748 4.07707 18.7644 3.66666 18.2581 3.66666H15.5081C15.0019 3.66666 14.5915 4.07707 14.5915 4.58333V7.33333C14.5915 7.83959 15.0019 8.24999 15.5081 8.24999H18.2581Z" fill="#787878"/>
</svg>