<svg width="30" height="30" viewBox="0 0 30 30" fill="none" xmlns="http://www.w3.org/2000/svg">
<path d="M8.58333 23.25H21.4167C22.4292 23.25 23.25 22.4292 23.25 21.4167V8.58333C23.25 7.57081 22.4292 6.75 21.4167 6.75H8.58333C7.57081 6.75 6.75 7.57081 6.75 8.58333V21.4167C6.75 22.4292 7.57081 23.25 8.58333 23.25ZM8.58333 23.25L18.6667 13.1667L23.25 17.75M13.1667 11.7917C13.1667 12.5511 12.5511 13.1667 11.7917 13.1667C11.0323 13.1667 10.4167 12.5511 10.4167 11.7917C10.4167 11.0323 11.0323 10.4167 11.7917 10.4167C12.5511 10.4167 13.1667 11.0323 13.1667 11.7917Z" stroke="#2A2A2A" stroke-width="1.5" stroke-linecap="round" stroke-linejoin="round"/>
</svg>
