<svg width="18" height="19" viewBox="0 0 18 19" fill="none" xmlns="http://www.w3.org/2000/svg">
<path d="M16.2451 8.33001L15.5101 11.465C14.8801 14.1725 13.6351 15.2675 11.2951 15.0425C10.9201 15.0125 10.5151 14.945 10.0801 14.84L8.82014 14.54C5.69263 13.7975 4.72513 12.2525 5.46013 9.11751L6.19513 5.97501C6.34513 5.33751 6.52513 4.78251 6.75013 4.32501C7.62763 2.51001 9.12013 2.02251 11.6251 2.61501L12.8776 2.90751C16.0201 3.64251 16.9801 5.19501 16.2451 8.33001Z" stroke="#0A5DBC" stroke-width="1.5" stroke-linecap="round" stroke-linejoin="round"/>
<path d="M11.2938 15.0425C10.8288 15.3575 10.2438 15.62 9.53129 15.8525L8.34629 16.2425C5.36879 17.2025 3.80129 16.4 2.83379 13.4225L1.87379 10.46C0.913791 7.48251 1.70879 5.90751 4.68629 4.94751L5.87129 4.55751C6.17879 4.46001 6.47129 4.37751 6.74879 4.32501C6.52379 4.78251 6.34379 5.33751 6.19379 5.97501L5.45879 9.11751C4.72379 12.2525 5.69129 13.7975 8.81879 14.54L10.0788 14.84C10.5138 14.945 10.9188 15.0125 11.2938 15.0425Z" stroke="#0A5DBC" stroke-width="1.5" stroke-linecap="round" stroke-linejoin="round"/>
<path d="M9.48047 6.89752L13.118 7.82002" stroke="#0A5DBC" stroke-width="1.5" stroke-linecap="round" stroke-linejoin="round"/>
<path d="M8.74609 9.79999L10.9211 10.355" stroke="#0A5DBC" stroke-width="1.5" stroke-linecap="round" stroke-linejoin="round"/>
</svg>
