<svg width="23" height="22" viewBox="0 0 23 22" fill="none" xmlns="http://www.w3.org/2000/svg">
<path d="M4.5083 17.4167V15.5833H6.34163V9.16666C6.34163 7.89861 6.72358 6.77569 7.48747 5.79791C8.25136 4.80486 9.24441 4.15555 10.4666 3.84999V3.20833C10.4666 2.82638 10.5965 2.50555 10.8562 2.24583C11.1312 1.97083 11.4597 1.83333 11.8416 1.83333C12.2236 1.83333 12.5444 1.97083 12.8041 2.24583C13.0791 2.50555 13.2166 2.82638 13.2166 3.20833V3.84999C14.4389 4.15555 15.4319 4.80486 16.1958 5.79791C16.9597 6.77569 17.3416 7.89861 17.3416 9.16666V15.5833H19.175V17.4167H4.5083ZM11.8416 20.1667C11.3375 20.1667 10.9021 19.991 10.5354 19.6396C10.184 19.2729 10.0083 18.8375 10.0083 18.3333H13.675C13.675 18.8375 13.4916 19.2729 13.125 19.6396C12.7736 19.991 12.3458 20.1667 11.8416 20.1667ZM8.17497 15.5833H15.5083V9.16666C15.5083 8.15833 15.1493 7.29513 14.4312 6.57708C13.7132 5.85902 12.85 5.49999 11.8416 5.49999C10.8333 5.49999 9.97011 5.85902 9.25205 6.57708C8.534 7.29513 8.17497 8.15833 8.17497 9.16666V15.5833Z" fill="#787878"/>
</svg>
