
<svg width="23" height="22" viewBox="0 0 23 22" fill="none" xmlns="http://www.w3.org/2000/svg">
<path fill-rule="evenodd" clip-rule="evenodd" d="M7.07502 2.36499L18.8909 8.35082C20.6417 9.23999 20.8984 10.45 20.8984 11.0733C20.8984 11.6967 20.6417 12.8333 18.8909 13.75L7.07502 19.7175C6.57684 19.9791 6.0243 20.1204 5.46169 20.13C4.9841 20.1369 4.51413 20.0098 4.10502 19.7633C3.20719 19.1467 2.70454 18.0995 2.78502 17.0133V5.11499C2.7007 4.02806 3.20422 2.97906 4.10502 2.36499C5.02592 1.8419 6.15412 1.8419 7.07502 2.36499ZM6.25002 18.0583L18.0567 12.0725C18.68 11.7517 19.065 11.3483 19.065 11.0275C19.065 10.7067 18.68 10.3033 18.0567 9.99166L6.21335 4.00582C5.97126 3.87219 5.70133 3.79687 5.42502 3.78582C5.29646 3.78938 5.17066 3.82397 5.05835 3.88666C4.728 4.17401 4.56292 4.60733 4.61835 5.04166V17.0133C4.56292 17.4476 4.728 17.881 5.05835 18.1683C5.4489 18.3337 5.89636 18.2924 6.25002 18.0583Z" fill="#0A5DBC"/>
</svg>
