<svg width="18" height="19" viewBox="0 0 18 19" fill="none" xmlns="http://www.w3.org/2000/svg">
<path d="M6.86992 9.215C6.84742 9.215 6.83242 9.215 6.80992 9.215C6.77242 9.2075 6.71992 9.2075 6.67492 9.215C4.49992 9.1475 2.85742 7.4375 2.85742 5.33C2.85742 3.185 4.60492 1.4375 6.74992 1.4375C8.89492 1.4375 10.6424 3.185 10.6424 5.33C10.6349 7.4375 8.98492 9.1475 6.89242 9.215C6.88492 9.215 6.87742 9.215 6.86992 9.215ZM6.74992 2.5625C5.22742 2.5625 3.98242 3.8075 3.98242 5.33C3.98242 6.83 5.15242 8.0375 6.64492 8.09C6.68992 8.0825 6.78742 8.0825 6.88492 8.09C8.35492 8.0225 9.50992 6.815 9.51742 5.33C9.51742 3.8075 8.27242 2.5625 6.74992 2.5625Z" fill="#787878"/>
<path d="M12.4048 9.3125C12.3823 9.3125 12.3598 9.3125 12.3373 9.305C12.0298 9.335 11.7148 9.1175 11.6848 8.81C11.6548 8.5025 11.8423 8.225 12.1498 8.1875C12.2398 8.18 12.3373 8.18 12.4198 8.18C13.5148 8.12 14.3698 7.22 14.3698 6.1175C14.3698 4.9775 13.4473 4.055 12.3073 4.055C11.9998 4.0625 11.7448 3.8075 11.7448 3.5C11.7448 3.1925 11.9998 2.9375 12.3073 2.9375C14.0623 2.9375 15.4948 4.37 15.4948 6.125C15.4948 7.85 14.1448 9.245 12.4273 9.3125C12.4198 9.3125 12.4123 9.3125 12.4048 9.3125Z" fill="#787878"/>
<path d="M6.87672 17.4125C5.40672 17.4125 3.92922 17.0375 2.81172 16.2875C1.76922 15.5975 1.19922 14.6525 1.19922 13.625C1.19922 12.5975 1.76922 11.645 2.81172 10.9475C5.06172 9.455 8.70672 9.455 10.9417 10.9475C11.9767 11.6375 12.5542 12.5825 12.5542 13.61C12.5542 14.6375 11.9842 15.59 10.9417 16.2875C9.81672 17.0375 8.34672 17.4125 6.87672 17.4125ZM3.43422 11.8925C2.71422 12.3725 2.32422 12.9875 2.32422 13.6325C2.32422 14.27 2.72172 14.885 3.43422 15.3575C5.30172 16.61 8.45172 16.61 10.3192 15.3575C11.0392 14.8775 11.4292 14.2625 11.4292 13.6175C11.4292 12.98 11.0317 12.365 10.3192 11.8925C8.45172 10.6475 5.30172 10.6475 3.43422 11.8925Z" fill="#787878"/>
<path d="M13.7546 16.0625C13.4921 16.0625 13.2596 15.8825 13.2071 15.6125C13.1471 15.305 13.3421 15.0125 13.6421 14.945C14.1146 14.8475 14.5496 14.66 14.8871 14.3975C15.3146 14.075 15.5471 13.67 15.5471 13.2425C15.5471 12.815 15.3146 12.41 14.8946 12.095C14.5646 11.84 14.1521 11.66 13.6646 11.5475C13.3646 11.48 13.1696 11.18 13.2371 10.8725C13.3046 10.5725 13.6046 10.3775 13.9121 10.445C14.5571 10.5875 15.1196 10.8425 15.5771 11.195C16.2746 11.72 16.6721 12.4625 16.6721 13.2425C16.6721 14.0225 16.2671 14.765 15.5696 15.2975C15.1046 15.6575 14.5196 15.92 13.8746 16.0475C13.8296 16.0625 13.7921 16.0625 13.7546 16.0625Z" fill="#787878"/>
</svg>
