<svg width="18" height="19" viewBox="0 0 18 19" fill="none" xmlns="http://www.w3.org/2000/svg">
<path d="M9.50992 3.52615C9.86992 4.05865 10.0799 4.69615 10.0799 5.38615C10.0724 7.18615 8.65492 8.64865 6.86992 8.70865C6.79492 8.70115 6.70492 8.70115 6.62242 8.70865C4.83742 8.64865 3.41992 7.18615 3.41992 5.38615C3.41992 3.54865 4.90492 2.05615 6.74992 2.05615" stroke="#292D32" stroke-width="1.5" stroke-linecap="round" stroke-linejoin="round"/>
<path d="M12.3075 3.55615C13.7625 3.55615 14.9325 4.73365 14.9325 6.18115C14.9325 7.59865 13.8075 8.75365 12.405 8.80615C12.345 8.79865 12.2775 8.79865 12.21 8.80615" stroke="#292D32" stroke-width="1.5" stroke-linecap="round" stroke-linejoin="round"/>
<path d="M3.12004 11.4762C1.30504 12.6912 1.30504 14.6712 3.12004 15.8787C5.18254 17.2587 8.56504 17.2587 10.6275 15.8787C12.4425 14.6637 12.4425 12.6837 10.6275 11.4762C8.57254 10.1037 5.19004 10.1037 3.12004 11.4762Z" stroke="#292D32" stroke-width="1.5" stroke-linecap="round" stroke-linejoin="round"/>
<path d="M13.7549 15.5562C14.2949 15.4437 14.8049 15.2262 15.2249 14.9037C16.3949 14.0262 16.3949 12.5787 15.2249 11.7012C14.8124 11.3862 14.3099 11.1762 13.7774 11.0562" stroke="#292D32" stroke-width="1.5" stroke-linecap="round" stroke-linejoin="round"/>
</svg>
