<svg width="23" height="22" viewBox="0 0 23 22" fill="none" xmlns="http://www.w3.org/2000/svg">
<path d="M9.32106 20.1667L8.95439 17.2333C8.75578 17.1569 8.56863 17.0653 8.39294 16.9583C8.21724 16.8514 8.04537 16.7368 7.87731 16.6146L5.15023 17.7604L2.62939 13.4062L4.98981 11.6187C4.97453 11.5118 4.96689 11.4087 4.96689 11.3094V10.6906C4.96689 10.5913 4.97453 10.4882 4.98981 10.3812L2.62939 8.59374L5.15023 4.23958L7.87731 5.38541C8.04537 5.26319 8.22106 5.14861 8.40439 5.04166C8.58773 4.93472 8.77106 4.84305 8.95439 4.76666L9.32106 1.83333H14.3627L14.7294 4.76666C14.928 4.84305 15.1152 4.93472 15.2909 5.04166C15.4665 5.14861 15.6384 5.26319 15.8065 5.38541L18.5336 4.23958L21.0544 8.59374L18.694 10.3812C18.7093 10.4882 18.7169 10.5913 18.7169 10.6906V11.3094C18.7169 11.4087 18.7016 11.5118 18.6711 11.6187L21.0315 13.4062L18.5106 17.7604L15.8065 16.6146C15.6384 16.7368 15.4627 16.8514 15.2794 16.9583C15.0961 17.0653 14.9127 17.1569 14.7294 17.2333L14.3627 20.1667H9.32106ZM10.9252 18.3333H12.7356L13.0565 15.9042C13.5301 15.7819 13.9693 15.6024 14.3742 15.3656C14.779 15.1288 15.1495 14.8424 15.4856 14.5062L17.7544 15.4458L18.6481 13.8875L16.6773 12.3979C16.7537 12.184 16.8072 11.9587 16.8377 11.7219C16.8683 11.4851 16.8836 11.2444 16.8836 11C16.8836 10.7556 16.8683 10.5149 16.8377 10.2781C16.8072 10.0413 16.7537 9.81597 16.6773 9.60208L18.6481 8.11249L17.7544 6.55416L15.4856 7.51666C15.1495 7.16527 14.779 6.87118 14.3742 6.63437C13.9693 6.39756 13.5301 6.21805 13.0565 6.09583L12.7586 3.66666H10.9481L10.6273 6.09583C10.1537 6.21805 9.71446 6.39756 9.3096 6.63437C8.90474 6.87118 8.53426 7.15763 8.19814 7.49374L5.92939 6.55416L5.03564 8.11249L7.00648 9.57916C6.93009 9.80833 6.87662 10.0375 6.84606 10.2667C6.81551 10.4958 6.80023 10.7403 6.80023 11C6.80023 11.2444 6.81551 11.4812 6.84606 11.7104C6.87662 11.9396 6.93009 12.1687 7.00648 12.3979L5.03564 13.8875L5.92939 15.4458L8.19814 14.4833C8.53426 14.8347 8.90474 15.1288 9.3096 15.3656C9.71446 15.6024 10.1537 15.7819 10.6273 15.9042L10.9252 18.3333ZM11.8877 14.2083C12.7738 14.2083 13.5301 13.8951 14.1565 13.2687C14.7829 12.6424 15.0961 11.8861 15.0961 11C15.0961 10.1139 14.7829 9.35763 14.1565 8.73124C13.5301 8.10486 12.7738 7.79166 11.8877 7.79166C10.9863 7.79166 10.2263 8.10486 9.60752 8.73124C8.98877 9.35763 8.67939 10.1139 8.67939 11C8.67939 11.8861 8.98877 12.6424 9.60752 13.2687C10.2263 13.8951 10.9863 14.2083 11.8877 14.2083Z" fill="#787878"/>
</svg>
