<svg width="22" height="22" viewBox="0 0 22 22" fill="none" xmlns="http://www.w3.org/2000/svg">
<path d="M7.87417 12.3842L14.135 16.0325M14.1258 5.96751L7.87417 9.61584M19.25 4.58334C19.25 6.10213 18.0188 7.33334 16.5 7.33334C14.9812 7.33334 13.75 6.10213 13.75 4.58334C13.75 3.06456 14.9812 1.83334 16.5 1.83334C18.0188 1.83334 19.25 3.06456 19.25 4.58334ZM8.25 11C8.25 12.5188 7.01878 13.75 5.5 13.75C3.98122 13.75 2.75 12.5188 2.75 11C2.75 9.48123 3.98122 8.25001 5.5 8.25001C7.01878 8.25001 8.25 9.48123 8.25 11ZM19.25 17.4167C19.25 18.9355 18.0188 20.1667 16.5 20.1667C14.9812 20.1667 13.75 18.9355 13.75 17.4167C13.75 15.8979 14.9812 14.6667 16.5 14.6667C18.0188 14.6667 19.25 15.8979 19.25 17.4167Z" stroke="#2A2A2A" stroke-width="1.5" stroke-linecap="round" stroke-linejoin="round"/>
</svg>
