<svg width="16" height="16" viewBox="0 0 16 16" fill="none" xmlns="http://www.w3.org/2000/svg">
<path d="M9.79919 15.1667H6.19919C2.90586 15.1667 1.50586 13.76 1.50586 10.4733V7.48C1.50586 7.20666 1.73253 6.98 2.00586 6.98C2.27919 6.98 2.50586 7.20666 2.50586 7.48V10.4733C2.50586 13.2 3.47253 14.1667 6.19919 14.1667H9.79253C12.5192 14.1667 13.4859 13.2 13.4859 10.4733V7.48C13.4859 7.20666 13.7125 6.98 13.9859 6.98C14.2592 6.98 14.4859 7.20666 14.4859 7.48V10.4733C14.4925 13.76 13.0859 15.1667 9.79919 15.1667Z" fill="#292D32"/>
<path d="M7.99935 8.49999C7.26602 8.49999 6.59935 8.21333 6.12602 7.68666C5.65268 7.15999 5.43268 6.47333 5.50602 5.73999L5.95268 1.28666C5.97935 1.03333 6.19268 0.833328 6.45268 0.833328H9.56602C9.82602 0.833328 10.0394 1.02666 10.066 1.28666L10.5127 5.73999C10.586 6.47333 10.366 7.15999 9.89268 7.68666C9.39935 8.21333 8.73268 8.49999 7.99935 8.49999ZM6.89935 1.83333L6.49935 5.83999C6.45268 6.28666 6.58602 6.70666 6.86602 7.01333C7.43268 7.63999 8.56602 7.63999 9.13268 7.01333C9.41268 6.7 9.54602 6.27999 9.49935 5.83999L9.09935 1.83333H6.89935Z" fill="#292D32"/>
<path d="M12.206 8.49999C10.8527 8.49999 9.64602 7.40666 9.50602 6.05999L9.03935 1.38666C9.02602 1.24666 9.07268 1.10666 9.16602 0.999995C9.25935 0.893328 9.39268 0.833328 9.53935 0.833328H11.5727C13.5327 0.833328 14.446 1.65333 14.7194 3.66666L14.906 5.51999C14.986 6.30666 14.746 7.05333 14.2327 7.61999C13.7194 8.18666 12.9994 8.49999 12.206 8.49999ZM10.0927 1.83333L10.506 5.95999C10.5927 6.79333 11.366 7.49999 12.206 7.49999C12.7127 7.49999 13.166 7.30666 13.4927 6.95333C13.8127 6.59999 13.9594 6.12666 13.9127 5.61999L13.726 3.78666C13.5194 2.27999 13.0327 1.83333 11.5727 1.83333H10.0927Z" fill="#292D32"/>
<path d="M3.76001 8.49999C2.96668 8.49999 2.24668 8.18666 1.73335 7.61999C1.22001 7.05333 0.980014 6.30666 1.06001 5.51999L1.24001 3.68666C1.52001 1.65333 2.43335 0.833328 4.39335 0.833328H6.42668C6.56668 0.833328 6.70001 0.893328 6.80001 0.999995C6.90001 1.10666 6.94001 1.24666 6.92668 1.38666L6.46001 6.05999C6.32001 7.40666 5.11335 8.49999 3.76001 8.49999ZM4.39335 1.83333C2.93335 1.83333 2.44668 2.27333 2.23335 3.79999L2.05335 5.61999C2.00001 6.12666 2.15335 6.59999 2.47335 6.95333C2.79335 7.30666 3.24668 7.49999 3.76001 7.49999C4.60001 7.49999 5.38001 6.79333 5.46001 5.95999L5.87335 1.83333H4.39335Z" fill="#292D32"/>
<path d="M9.66732 15.1667H6.33398C6.06065 15.1667 5.83398 14.94 5.83398 14.6667V13C5.83398 11.6 6.60065 10.8333 8.00065 10.8333C9.40065 10.8333 10.1673 11.6 10.1673 13V14.6667C10.1673 14.94 9.94065 15.1667 9.66732 15.1667ZM6.83398 14.1667H9.16732V13C9.16732 12.16 8.84065 11.8333 8.00065 11.8333C7.16065 11.8333 6.83398 12.16 6.83398 13V14.1667Z" fill="#292D32"/>
</svg>
