<svg width="18" height="19" viewBox="0 0 18 19" fill="none" xmlns="http://www.w3.org/2000/svg">
<path d="M11.5427 4.4075L12.6002 6.52249C12.7427 6.81499 13.1252 7.09249 13.4477 7.15249L15.3602 7.46749C16.5827 7.66999 16.8677 8.55499 15.9902 9.43999L14.4977 10.9325C14.2502 11.18 14.1077 11.6675 14.1902 12.02L14.6177 13.865C14.9552 15.32 14.1752 15.89 12.8927 15.125L11.1002 14.06C10.7777 13.865 10.2377 13.865 9.91521 14.06L8.1227 15.125C6.8402 15.8825 6.06021 15.32 6.39771 13.865L6.82521 12.02C6.90771 11.675 6.76521 11.1875 6.51771 10.9325L5.02522 9.43999C4.14772 8.56249 4.43271 7.67749 5.65521 7.46749L7.5677 7.15249C7.8902 7.09999 8.27271 6.81499 8.41521 6.52249L9.47271 4.4075C10.0352 3.26 10.9652 3.26 11.5427 4.4075Z" stroke="#0A5DBC" stroke-width="1.5" stroke-linecap="round" stroke-linejoin="round"/>
<path opacity="0.4" d="M6 4.25H1.5" stroke="#0A5DBC" stroke-width="1.5" stroke-linecap="round" stroke-linejoin="round"/>
<path opacity="0.4" d="M3.75 14.75H1.5" stroke="#0A5DBC" stroke-width="1.5" stroke-linecap="round" stroke-linejoin="round"/>
<path opacity="0.4" d="M2.25 9.5H1.5" stroke="#0A5DBC" stroke-width="1.5" stroke-linecap="round" stroke-linejoin="round"/>
</svg>
