<svg width="88" height="89" viewBox="0 0 88 89" fill="none" xmlns="http://www.w3.org/2000/svg">
<rect y="0.5" width="88" height="88" rx="44" fill="#DFFDDF"/>
<rect x="15" y="15.5" width="58" height="58" rx="15" fill="#9BF89B"/>
<path d="M43.9987 30.3335C36.1929 30.3335 29.832 36.6943 29.832 44.5002C29.832 52.306 36.1929 58.6668 43.9987 58.6668C51.8045 58.6668 58.1654 52.306 58.1654 44.5002C58.1654 36.6943 51.8045 30.3335 43.9987 30.3335ZM50.7704 41.2418L42.7379 49.2743C42.5395 49.4727 42.2704 49.586 41.987 49.586C41.7037 49.586 41.4345 49.4727 41.2362 49.2743L37.227 45.2652C36.8162 44.8543 36.8162 44.1743 37.227 43.7635C37.6379 43.3527 38.3179 43.3527 38.7287 43.7635L41.987 47.0218L49.2687 39.7402C49.6795 39.3293 50.3595 39.3293 50.7704 39.7402C51.1812 40.151 51.1812 40.8168 50.7704 41.2418Z" fill="#007B00"/>
</svg>
