<svg width="16" height="16" viewBox="0 0 16 16" fill="none" xmlns="http://www.w3.org/2000/svg">
<path d="M14.2193 5.27998C13.946 5.27998 13.7193 5.05331 13.7193 4.77998V3.56665C13.7193 3.07998 13.326 2.68665 12.8393 2.68665H3.1593C2.67263 2.68665 2.2793 3.07998 2.2793 3.56665V4.78665C2.2793 5.05998 2.05263 5.28665 1.7793 5.28665C1.50596 5.28665 1.2793 5.05998 1.2793 4.77998V3.56665C1.2793 2.52665 2.12596 1.68665 3.1593 1.68665H12.8393C13.8793 1.68665 14.7193 2.53331 14.7193 3.56665V4.78665C14.7193 5.05998 14.4993 5.27998 14.2193 5.27998Z" fill="#292D32"/>
<path d="M8 14.3133C7.72667 14.3133 7.5 14.0867 7.5 13.8133V2.73999C7.5 2.46666 7.72667 2.23999 8 2.23999C8.27333 2.23999 8.5 2.46666 8.5 2.73999V13.8133C8.5 14.0933 8.27333 14.3133 8 14.3133Z" fill="#292D32"/>
<path d="M10.6264 14.3134H5.37305C5.09971 14.3134 4.87305 14.0867 4.87305 13.8134C4.87305 13.54 5.09971 13.3134 5.37305 13.3134H10.6264C10.8997 13.3134 11.1264 13.54 11.1264 13.8134C11.1264 14.0867 10.8997 14.3134 10.6264 14.3134Z" fill="#292D32"/>
</svg>
