<svg width="18" height="19" viewBox="0 0 18 19" fill="none" xmlns="http://www.w3.org/2000/svg">
<path d="M11.4296 17.5625H6.56962C5.15212 17.5625 4.11712 16.97 3.71962 15.95C3.30712 14.885 3.68962 13.565 4.67962 12.6725L8.15962 9.5L4.67962 6.3275C3.68962 5.435 3.30712 4.115 3.71962 3.05C4.11712 2.0225 5.15212 1.4375 6.56962 1.4375H11.4296C12.8471 1.4375 13.8821 2.03 14.2796 3.05C14.6921 4.115 14.3096 5.435 13.3196 6.3275L9.83962 9.5L13.3271 12.6725C14.3096 13.565 14.6996 14.885 14.2871 15.95C13.8821 16.97 12.8471 17.5625 11.4296 17.5625ZM8.99962 10.2575L5.43712 13.4975C4.80712 14.075 4.52962 14.915 4.76962 15.5375C4.99462 16.115 5.63212 16.4375 6.56962 16.4375H11.4296C12.3671 16.4375 13.0046 16.1225 13.2296 15.5375C13.4696 14.915 13.1996 14.075 12.5621 13.4975L8.99962 10.2575ZM6.56962 2.5625C5.63212 2.5625 4.99462 2.8775 4.76962 3.4625C4.52962 4.085 4.79962 4.925 5.43712 5.5025L8.99962 8.7425L12.5621 5.5025C13.1921 4.925 13.4696 4.085 13.2296 3.4625C13.0046 2.885 12.3671 2.5625 11.4296 2.5625H6.56962Z" fill="#787878"/>
</svg>
