<svg width="32" height="32" viewBox="0 0 32 32" fill="none" xmlns="http://www.w3.org/2000/svg">
<circle cx="16" cy="16" r="16" fill="#FDCECE"/>
<path d="M16 8C14.4178 8 12.871 8.46919 11.5554 9.34824C10.2398 10.2273 9.21447 11.4767 8.60897 12.9385C8.00347 14.4003 7.84504 16.0089 8.15372 17.5607C8.4624 19.1126 9.22433 20.538 10.3431 21.6569C11.462 22.7757 12.8874 23.5376 14.4393 23.8463C15.9911 24.155 17.5997 23.9965 19.0615 23.391C20.5233 22.7855 21.7727 21.7602 22.6518 20.4446C23.5308 19.129 24 17.5822 24 16C23.9959 13.8795 23.1518 11.847 21.6524 10.3476C20.153 8.84823 18.1205 8.00407 16 8ZM18.9 18.0231C19.0156 18.1397 19.0804 18.2973 19.0804 18.4615C19.0804 18.6257 19.0156 18.7833 18.9 18.9C18.7824 19.0137 18.6252 19.0773 18.4615 19.0773C18.2979 19.0773 18.1407 19.0137 18.0231 18.9L16 16.8692L13.9769 18.9C13.8593 19.0137 13.7021 19.0773 13.5385 19.0773C13.3748 19.0773 13.2176 19.0137 13.1 18.9C12.9844 18.7833 12.9196 18.6257 12.9196 18.4615C12.9196 18.2973 12.9844 18.1397 13.1 18.0231L15.1308 16L13.1 13.9769C13.0019 13.8574 12.9517 13.7056 12.9593 13.5511C12.9669 13.3966 13.0317 13.2504 13.1411 13.1411C13.2504 13.0317 13.3966 12.9669 13.5511 12.9593C13.7056 12.9517 13.8574 13.0019 13.9769 13.1L16 15.1308L18.0231 13.1C18.1426 13.0019 18.2944 12.9517 18.4489 12.9593C18.6034 12.9669 18.7496 13.0317 18.8589 13.1411C18.9683 13.2504 19.0331 13.3966 19.0407 13.5511C19.0483 13.7056 18.9981 13.8574 18.9 13.9769L16.8692 16L18.9 18.0231Z" fill="#F30C0C"/>
</svg>
