<svg width="32" height="32" viewBox="0 0 32 32" fill="none" xmlns="http://www.w3.org/2000/svg">
<circle cx="16" cy="16" r="16" fill="#D9FFCC"/>
<path d="M16 8C14.4178 8 12.871 8.46919 11.5554 9.34824C10.2398 10.2273 9.21447 11.4767 8.60897 12.9385C8.00347 14.4003 7.84504 16.0089 8.15372 17.5607C8.4624 19.1126 9.22433 20.538 10.3431 21.6569C11.462 22.7757 12.8874 23.5376 14.4393 23.8463C15.9911 24.155 17.5997 23.9965 19.0615 23.391C20.5233 22.7855 21.7727 21.7602 22.6518 20.4446C23.5308 19.129 24 17.5822 24 16C23.9959 13.8795 23.1518 11.847 21.6524 10.3476C20.153 8.84823 18.1205 8.00407 16 8ZM19.8077 14.6L15.3 18.9077C15.1835 19.0173 15.0292 19.0779 14.8692 19.0769C14.791 19.078 14.7134 19.0637 14.6408 19.0346C14.5682 19.0056 14.502 18.9624 14.4462 18.9077L12.1923 16.7538C12.1298 16.6993 12.079 16.6327 12.0428 16.558C12.0067 16.4833 11.9861 16.4021 11.9822 16.3192C11.9783 16.2363 11.9911 16.1535 12.02 16.0758C12.0489 15.998 12.0933 15.9269 12.1503 15.8667C12.2074 15.8065 12.2761 15.7585 12.3522 15.7255C12.4283 15.6925 12.5103 15.6752 12.5933 15.6748C12.6763 15.6743 12.7585 15.6906 12.835 15.7227C12.9115 15.7548 12.9807 15.802 13.0385 15.8615L14.8692 17.6077L18.9615 13.7077C19.0812 13.6033 19.2366 13.5492 19.3952 13.5567C19.5538 13.5642 19.7034 13.6327 19.8126 13.748C19.9219 13.8632 19.9824 14.0162 19.9815 14.175C19.9806 14.3338 19.9183 14.4861 19.8077 14.6Z" fill="#289900"/>
</svg>
