<svg width="22" height="22" viewBox="0 0 22 22" fill="none" xmlns="http://www.w3.org/2000/svg">
<path d="M20.1665 4.58341V8.25008C20.1665 8.75634 19.7561 9.16675 19.2499 9.16675C18.7436 9.16675 18.3332 8.75634 18.3332 8.25008V6.89341L12.604 13.4384C12.4303 13.6362 12.1798 13.7497 11.9165 13.7501C11.6621 13.7566 11.4163 13.657 11.2382 13.4751L9.18488 11.4034L3.40988 18.0217C3.19847 18.2842 2.86007 18.4095 2.5287 18.348C2.19733 18.2865 1.92643 18.0481 1.82329 17.7273C1.72016 17.4064 1.80141 17.0548 2.03488 16.8117L8.45155 9.47842C8.61844 9.28722 8.85713 9.17376 9.11077 9.16508C9.36441 9.15639 9.6103 9.25325 9.78988 9.43258L11.9165 11.4859L17.114 5.50008H15.5832C15.077 5.50008 14.6665 5.08968 14.6665 4.58341C14.6665 4.07715 15.077 3.66675 15.5832 3.66675H19.2499C19.7561 3.66675 20.1665 4.07715 20.1665 4.58341Z" fill="black"/>
</svg>
