<svg width="16" height="16" viewBox="0 0 16 16" fill="none" xmlns="http://www.w3.org/2000/svg">
<path d="M7.99984 7.99992C9.84079 7.99992 11.3332 6.50753 11.3332 4.66658C11.3332 2.82564 9.84079 1.33325 7.99984 1.33325C6.15889 1.33325 4.6665 2.82564 4.6665 4.66658C4.6665 6.50753 6.15889 7.99992 7.99984 7.99992Z" stroke="white" stroke-width="1.5" stroke-linecap="round" stroke-linejoin="round"/>
<path d="M2.27344 14.6667C2.27344 12.0867 4.8401 10 8.0001 10C8.6401 10 9.26011 10.0867 9.84011 10.2467" stroke="white" stroke-width="1.5" stroke-linecap="round" stroke-linejoin="round"/>
<path d="M14.6668 11.9999C14.6668 12.2133 14.6402 12.4199 14.5868 12.6199C14.5268 12.8866 14.4202 13.1466 14.2802 13.3733C13.8202 14.1466 12.9735 14.6666 12.0002 14.6666C11.3135 14.6666 10.6935 14.4066 10.2268 13.9799C10.0268 13.8066 9.85349 13.5999 9.72015 13.3733C9.47349 12.9733 9.3335 12.4999 9.3335 11.9999C9.3335 11.2799 9.62017 10.6199 10.0868 10.1399C10.5735 9.63993 11.2535 9.33325 12.0002 9.33325C12.7868 9.33325 13.5002 9.67326 13.9802 10.2199C14.4068 10.6933 14.6668 11.3199 14.6668 11.9999Z" stroke="white" stroke-width="1.5" stroke-miterlimit="10" stroke-linecap="round" stroke-linejoin="round"/>
<path d="M12.9935 11.9868H11.0068" stroke="white" stroke-width="1.5" stroke-miterlimit="10" stroke-linecap="round" stroke-linejoin="round"/>
<path d="M12 11.0134V13.0068" stroke="white" stroke-width="1.5" stroke-miterlimit="10" stroke-linecap="round" stroke-linejoin="round"/>
</svg>
