<svg width="22" height="22" viewBox="0 0 22 22" fill="none" xmlns="http://www.w3.org/2000/svg">
<path fill-rule="evenodd" clip-rule="evenodd" d="M20.396 15.5835C20.409 18.0088 18.8935 20.1795 16.6123 21.003C14.3311 21.8266 11.7785 21.1245 10.2393 19.2502C10.1875 19.2546 10.1353 19.2546 10.0835 19.2502H4.48266C3.0483 19.2757 1.86358 18.1361 1.8335 16.7018V5.29851C1.86358 3.86424 3.0483 2.72461 4.48266 2.75018H16.601C18.0354 2.72461 19.2201 3.86424 19.2502 5.29851L19.3052 11.9168C19.301 12.0048 19.2824 12.0915 19.2502 12.1735C19.9913 13.1561 20.3934 14.3528 20.396 15.5835ZM13.686 15.6202L13.9518 15.3452C14.134 15.1721 14.2371 14.9319 14.2371 14.6806C14.2371 14.4293 14.134 14.1891 13.9518 14.016C13.7797 13.8425 13.5454 13.7449 13.301 13.7449C13.0566 13.7449 12.8223 13.8425 12.6502 14.016L11.7335 14.9327C11.3781 15.2902 11.3781 15.8676 11.7335 16.2252L12.6502 17.1418C12.8216 17.3168 13.056 17.4158 13.301 17.4168C13.6579 17.4055 13.9756 17.1879 14.1153 16.8593C14.255 16.5307 14.1912 16.1509 13.9518 15.886L13.686 15.6202ZM15.4002 15.3452C15.0448 14.9876 15.0448 14.4102 15.4002 14.0527C15.5723 13.8791 15.8066 13.7815 16.051 13.7815C16.2954 13.7815 16.5297 13.8791 16.7018 14.0527L17.6185 14.9693C17.9739 15.3269 17.9739 15.9043 17.6185 16.2618L16.7018 17.1785C16.5303 17.3535 16.296 17.4525 16.051 17.4535C15.806 17.4525 15.5716 17.3535 15.4002 17.1785C15.0448 16.821 15.0448 16.2435 15.4002 15.886L15.6752 15.6202L15.4002 15.3452ZM17.4168 10.5877C16.5783 10.1113 15.6312 9.85875 14.6668 9.85435C12.8214 9.85475 11.0892 10.744 10.0133 12.2434C8.93743 13.7427 8.64963 15.6685 9.24016 17.4168H4.48266C4.06049 17.443 3.69623 17.1238 3.66683 16.7018V5.29851C3.69623 4.87655 4.06049 4.55731 4.48266 4.58351H16.601C16.8053 4.57099 17.0062 4.64033 17.1593 4.77621C17.3123 4.91209 17.405 5.10333 17.4168 5.30768V10.5877ZM18.5627 15.5835C18.5627 13.4319 16.8184 11.6877 14.6668 11.6877C12.5152 11.6877 10.771 13.4319 10.771 15.5835C10.771 17.7351 12.5152 19.4793 14.6668 19.4793C16.8163 19.4743 18.5576 17.733 18.5627 15.5835ZM14.6668 6.41684C15.1731 6.41684 15.5835 6.82725 15.5835 7.33351C15.5835 7.83977 15.1731 8.25018 14.6668 8.25018H6.41683C5.91057 8.25018 5.50016 7.83977 5.50016 7.33351C5.50016 6.82725 5.91057 6.41684 6.41683 6.41684H14.6668Z" fill="black"/>
</svg>
